<svg xmlns="http://www.w3.org/2000/svg" width="192" height="192" viewBox="0 0 192 192" fill="none">
  <rect width="192" height="192" rx="24" fill="#2E7D32"/>
  <g transform="translate(32, 32)">
    <!-- Dashboard grid layout -->
    <rect x="8" y="8" width="48" height="48" rx="8" fill="white" opacity="0.9"/>
    <rect x="72" y="8" width="48" height="48" rx="8" fill="white" opacity="0.9"/>
    <rect x="8" y="72" width="48" height="48" rx="8" fill="white" opacity="0.9"/>
    <rect x="72" y="72" width="48" height="48" rx="8" fill="white" opacity="0.9"/>
    
    <!-- Icons in each grid cell -->
    <!-- Top left: User icon -->
    <circle cx="32" cy="26" r="6" fill="#2E7D32"/>
    <path d="M20 44c0-6.627 5.373-12 12-12s12 5.373 12 12" stroke="#2E7D32" stroke-width="2" fill="none"/>
    
    <!-- Top right: Calendar icon -->
    <rect x="80" y="18" width="32" height="28" rx="2" stroke="#2E7D32" stroke-width="2" fill="none"/>
    <line x1="84" y1="14" x2="84" y2="22" stroke="#2E7D32" stroke-width="2"/>
    <line x1="108" y1="14" x2="108" y2="22" stroke="#2E7D32" stroke-width="2"/>
    <line x1="80" y1="26" x2="112" y2="26" stroke="#2E7D32" stroke-width="2"/>
    
    <!-- Bottom left: Message icon -->
    <rect x="16" y="82" width="32" height="20" rx="4" stroke="#2E7D32" stroke-width="2" fill="none"/>
    <path d="M16 86l16 12 16-12" stroke="#2E7D32" stroke-width="2" fill="none"/>
    
    <!-- Bottom right: Classes icon -->
    <rect x="80" y="80" width="32" height="24" rx="2" stroke="#2E7D32" stroke-width="2" fill="none"/>
    <line x1="84" y1="88" x2="108" y2="88" stroke="#2E7D32" stroke-width="2"/>
    <line x1="84" y1="92" x2="104" y2="92" stroke="#2E7D32" stroke-width="2"/>
    <line x1="84" y1="96" x2="100" y2="96" stroke="#2E7D32" stroke-width="2"/>
  </g>
</svg>