<svg xmlns="http://www.w3.org/2000/svg" width="192" height="192" viewBox="0 0 192 192" fill="none">
  <rect width="192" height="192" rx="24" fill="#2E7D32"/>
  <g transform="translate(24, 24)">
    <!-- Main message bubble -->
    <path d="M20 32 C20 24, 28 16, 36 16 L108 16 C116 16, 124 24, 124 32 L124 80 C124 88, 116 96, 108 96 L52 96 L20 120 L20 32 Z" fill="white"/>
    
    <!-- Message lines -->
    <line x1="36" y1="36" x2="108" y2="36" stroke="#2E7D32" stroke-width="3" stroke-linecap="round"/>
    <line x1="36" y1="48" x2="92" y2="48" stroke="#2E7D32" stroke-width="3" stroke-linecap="round"/>
    <line x1="36" y1="60" x2="100" y2="60" stroke="#2E7D32" stroke-width="3" stroke-linecap="round"/>
    <line x1="36" y1="72" x2="84" y2="72" stroke="#2E7D32" stroke-width="3" stroke-linecap="round"/>
    
    <!-- Secondary message bubble -->
    <path d="M68 48 C68 42, 72 38, 78 38 L132 38 C138 38, 142 42, 142 48 L142 84 C142 90, 138 94, 132 94 L142 108 L92 94 L78 94 C72 94, 68 90, 68 84 L68 48 Z" fill="white" opacity="0.8"/>
    
    <!-- Secondary message lines -->
    <line x1="78" y1="56" x2="122" y2="56" stroke="#4CAF50" stroke-width="2" stroke-linecap="round"/>
    <line x1="78" y1="66" x2="110" y2="66" stroke="#4CAF50" stroke-width="2" stroke-linecap="round"/>
    <line x1="78" y1="76" x2="118" y2="76" stroke="#4CAF50" stroke-width="2" stroke-linecap="round"/>
    
    <!-- Notification dot -->
    <circle cx="132" cy="28" r="8" fill="#FF5722"/>
    <text x="132" y="33" text-anchor="middle" fill="white" font-size="10" font-weight="bold">3</text>
  </g>
</svg>