<svg xmlns="http://www.w3.org/2000/svg" version="1.1" xmlns:xlink="http://www.w3.org/1999/xlink" width="235" height="235"><svg xmlns="http://www.w3.org/2000/svg" viewBox="0 0 601.6 235" width="235" height="235">
    <!-- Green circular background -->
    <circle cx="303" cy="115" r="300" fill="#16a34a" opacity="0.3"></circle>

    <!-- Original path -->
    <path fill="#FFECB3" d="m 238.7425,-77.256125 c -38,11 -73,34 -99,64 -35,39.999996 -52.999993,91.999996 -50.999993,144.999995 2,48 18.999993,95.00001 49.999993,132.00001 27,32 65,56 105,68 V 161.74387 h -66 v 15 c 0,8 6,14 14,14 h 19 v 89.00001 c -14,-8 -27,-17 -38,-29 -30,-31.00001 -47,-75.00001 -45,-119.00001 1,-36.999999 14,-72.999999 36,-101.999999 14,-17.999996 31,-33.9999958 50,-44.999996 V 95.743871 h 28 V -77.256125 Z m 91,-7 v 29 c 16,0 32,3 47,7 V 276.74388 h 1 v 40 c 10,-3 19,-6 28,-10 V -38.256125 c 19,11 36,27 50,45.0000002 22,28.9999958 35,64.9999958 36,101.9999948 h 1 v 102 c 19,-30 29,-65 29,-100 -1,-52.999999 -18,-104.9999948 -53,-144.999995 -34,-39 -84,-65 -137,-69.999995 h -23 z"></path>
</svg><style>@media (prefers-color-scheme: light) { :root { filter: none; } }
@media (prefers-color-scheme: dark) { :root { filter: none; } }
</style></svg>