<?xml version="1.0" encoding="UTF-8"?>
<svg id="Layer_2" xmlns="http://www.w3.org/2000/svg" version="1.1" viewBox="0 0 395.9 389.7">
  <!-- Generator: Adobe Illustrator 29.6.0, SVG Export Plug-In . SVG Version: 2.1.1 Build 207)  -->
  <defs>
    <style>
      .st0 {
        fill: #469c45;
        fill-rule: evenodd;
      }
    </style>
  </defs>
  <g id="Layer_1-2">
    <g id="icon_yellow-green">
      <path id="GN" class="st0" d="M117.1,225h-36.1v15.4c0,8.4,6.9,15.4,15.4,15.4h20.7v88.6c-13.8-7.6-26.3-17.1-37.4-28.2-30.3-30.3-49-72.1-49-118.2s18.7-88,49-118.3c11-11,23.6-20.5,37.4-28.2v116.7h30.7V27.5h0V6.4c-34.5,9-65.3,27.1-89.7,51.5C22.2,93.8,0,143.3,0,197.9s22.2,104.1,58,140c24.4,24.4,55.2,42.5,89.7,51.5v-21.2h0v-143.2h-30.7ZM197.9,0c54.7,0,104.1,22.2,140,58,35.8,35.8,58,85.3,58,140s-11.3,75.3-30.7,105.9v-105.7h0v-.2c0-46.2-18.7-88-49-118.3-11.3-11.3-24.1-20.9-38.2-28.6v293.8h.1c0,0,0,34.1,0,34.1-9.9,4.4-20.1,8-30.7,10.7v-21.2h0V38.1c-15.6-4.8-32.2-7.4-49.3-7.4h-1.1V0h1.1,0Z"/>
    </g>
  </g>
</svg>