<?xml version="1.0" encoding="UTF-8"?>
<svg id="Layer_2" data-name="Layer 2" xmlns="http://www.w3.org/2000/svg" viewBox="0 0 395.87 389.66">
  <defs>
    <style>
      .cls-1 {
        fill: #fff2c7;
        fill-rule: evenodd;
      }
    </style>
  </defs>
  <g id="Layer_1-2" data-name="Layer 1">
    <g id="icon_green-yellow" data-name="icon green-yellow">
      <path id="GN" class="cls-1" d="M117.05,225.02h-36.05v15.37c0,8.45,6.91,15.37,15.37,15.37h20.68v88.59c-13.76-7.62-26.34-17.12-37.37-28.16-30.27-30.26-48.98-72.08-48.98-118.25s18.72-88,48.98-118.26c11.04-11.03,23.61-20.53,37.37-28.15v116.7h30.7V27.46h-.07V6.45c-34.46,9.02-65.26,27.09-89.7,51.53C22.16,93.8,0,143.28,0,197.94s22.16,104.14,57.98,139.96c24.44,24.44,55.24,42.51,89.7,51.53v-21.24h.07v-143.18h-30.7ZM197.93,0c54.66,0,104.14,22.16,139.96,57.98,35.82,35.82,57.98,85.3,57.98,139.96,0,38.96-11.26,75.29-30.7,105.91v-105.67h0v-.24c0-46.18-18.71-88-48.98-118.26-11.27-11.27-24.14-20.94-38.25-28.64v293.79l.12-.07v34.21c-9.85,4.37-20.12,7.95-30.74,10.68v-21.25h-.07V38.09c-15.59-4.8-32.15-7.39-49.31-7.39h-1.09S196.85,0,196.85,0h1.09Z"/>
    </g>
  </g>
</svg>