<?xml version="1.0" encoding="UTF-8"?>
<svg id="Layer_2" data-name="Layer 2" xmlns="http://www.w3.org/2000/svg" viewBox="0 0 1603.66 300">
  <defs>
    <style>
      .cls-13 {
      fill-rule: evenodd;
      }

      .cls-13, .cls-14 {
      fill: #469a45;
      }
    </style>
  </defs>
  <g id="Layer_1-2" data-name="Layer 1">
    <g id="logo_H" data-name="logo H">
      <!-- GREENEGIN text converted to paths -->
      <g transform="translate(361.79 119.44)" aria-label="GREENEGINKARATE">
        <!-- G -->
        <path class="cls-14" d="m 40.469761,-76.161842 q -4.35612,0 -6.88548,2.1078 -2.52936,1.96728 -2.52936,6.46392 v 37.940401 q 0,4.49664 2.52936,6.60444 2.66988,1.96728 6.88548,1.96728 h 25.293601 q 4.35612,0 6.88548,-1.96728 2.52936,-2.1078 2.52936,-6.60444 v -8.4312 h -22.06164 q 0,-3.93456 0.7026,-7.7286 0.7026,-3.794041 2.38884,-6.744961 1.68624,-2.95092 4.63716,-4.77768 3.09144,-1.82676 7.7286,-1.82676 h 30.211801 v 29.509201 q 0,6.3234 -1.26468,11.80368 -1.12416,5.339761 -4.07508,9.4148407 -2.8104,3.9345602 -7.58808,6.1828802 Q 81.220562,0 74.335082,0 H 32.038561 q -7.026,0 -11.66316,-2.2483201 -4.637161,-2.24832 -7.588081,-6.1828802 -2.8103997,-4.0750797 -4.0750797,-9.4148407 -1.1241601,-5.48028 -1.1241601,-11.80368 v -37.940401 q 0,-6.18288 1.1241601,-11.52264 1.26468,-5.480281 4.0750797,-9.414841 2.95092,-4.07508 7.588081,-6.3234 4.63716,-2.38884 11.66316,-2.38884 h 42.296521 q 6.88548,0 11.522641,2.24832 4.77768,2.24832 7.58808,6.3234 2.95092,3.93456 4.07508,9.414841 1.26468,5.33976 1.26468,11.66316 H 75.178202 q 0,-4.49664 -2.52936,-6.46392 -2.52936,-2.1078 -6.88548,-2.1078 H 40.469761 Z"/>

        <!-- R -->
        <path class="cls-14" d="m 226.79652,-97.239843 q 6.88548,0 11.66316,2.24832 4.77768,2.24832 7.58808,6.3234 2.8104,3.93456 4.07508,9.414841 1.26468,5.33976 1.26468,11.66316 v 2.8104 q 0,12.50628 -5.76132,19.672801 -5.76132,7.026 -18.82968,7.026 H 218.9274 L 251.38752,0 h -31.19544 l -32.3196,-38.080921 h -3.23196 -0.98364 V 0 h -23.60736 v -97.239843 z m -8.4312,38.080921 q 4.35612,0 6.88548,-1.96728 2.52936,-1.96728 2.52936,-6.46392 0,-4.49664 -2.52936,-6.46392 -2.52936,-1.96728 -6.88548,-1.96728 h -34.70844 v 16.8624 z"/>

        <!-- E -->
        <path class="cls-14" d="m 307.86213,-97.239843 h 82.2042 v 21.078001 h -58.73736 v 16.8624 h 49.60356 v 21.218521 h -49.60356 v 16.8624 h 58.73736 V 0 h -82.2042 v -97.239843 z"/>

        <!-- E -->
        <path class="cls-14" d="m 449.50212,-97.239843 h 82.2042 v 21.078001 h -58.73736 v 16.8624 h 49.60356 v 21.218521 h -49.60356 v 16.8624 h 58.73736 V 0 h -82.2042 v -97.239843 z"/>

        <!-- N -->
        <path class="cls-14" d="m 661.54006,-97.239843 h 23.60737 V 0 H 661.54006 L 614.60638,-59.158922 V 0 h -23.46684 v -97.239843 h 23.46684 l 46.93368,59.018402 v -59.018402 z"/>

        <!-- E -->
        <path class="cls-14" d="m 751.47215,-97.239843 h 82.2042 v 21.078001 h -58.73736 v 16.8624 h 49.60356 v 21.218521 h -49.60356 v 16.8624 h 58.73736 V 0 h -82.2042 v -97.239843 z"/>

        <!-- G -->
        <path class="cls-14" d="m 921.21976,-76.161842 q -4.35612,0 -6.88548,2.1078 -2.52936,1.96728 -2.52936,6.46392 v 37.940401 q 0,4.49664 2.52936,6.60444 2.66988,1.96728 6.88548,1.96728 h 25.2936 q 4.35612,0 6.88548,-1.96728 2.52936,-2.1078 2.52936,-6.60444 v -8.4312 h -22.06164 q 0,-3.93456 0.7026,-7.7286 0.7026,-3.794041 2.38884,-6.744961 1.68624,-2.95092 4.63716,-4.77768 3.09144,-1.82676 7.7286,-1.82676 h 30.2118 v 29.509201 q 0,6.3234 -1.26468,11.80368 -1.12416,5.339761 -4.07508,9.4148407 -2.8104,3.9345602 -7.58808,6.1828802 Q 961.97056,0 955.08508,0 h -42.29652 q -7.026,0 -11.66316,-2.2483201 -4.63716,-2.24832 -7.58808,-6.1828802 -2.8104,-4.0750797 -4.07508,-9.4148407 -1.12416,-5.48028 -1.12416,-11.80368 v -37.940401 q 0,-6.18288 1.12416,-11.52264 1.26468,-5.480281 4.07508,-9.414841 2.95092,-4.07508 7.58808,-6.3234 4.63716,-2.38884 11.66316,-2.38884 h 42.29652 q 6.88548,0 11.52264,2.24832 4.77768,2.24832 7.58808,6.3234 2.95092,3.93456 4.07508,9.414841 1.26468,5.33976 1.26468,11.66316 H 955.9282 q 0,-4.49664 -2.52936,-6.46392 -2.52936,-2.1078 -6.88548,-2.1078 h -25.2936 z"/>

        <!-- I -->
        <path class="cls-14" d="m 1040.7895,-97.239843 h 23.6074 V 0 h -23.6074 v -97.239843 z"/>

        <!-- N -->
        <path class="cls-14" d="m 1202.67,-97.239843 h 23.6074 V 0 H 1202.67 l -46.9337,-59.158922 V 0 h -23.4668 v -97.239843 h 23.4668 l 46.9337,59.018402 v -59.018402 z"/>

        <!-- K -->
        <path class="cls-14" d="M 97.099323,71.380152 58.596842,121.68631 96.256203,168.62 H 65.903882 q -8.00964,-9.97693 -15.87876,-19.67281 -7.869121,-9.8364 -15.738241,-19.95384 V 168.62 H 10.67952 V 71.380152 H 34.286881 V 114.51979 L 67.309082,71.380152 Z"/>

        <!-- A -->
        <path class="cls-14" d="M 220.33248,71.380152 264.7368,168.62 h -25.9962 l -7.30704,-15.87877 H 175.08504 L 167.91852,168.62 H 141.7818 l 44.54484,-97.239848 z m -34.4274,57.753718 h 34.70844 L 203.32956,91.193473 Z"/>

        <!-- R -->
        <path class="cls-14" d="m 378.69651,71.380152 q 6.88548,0 11.66316,2.24832 4.77768,2.24832 7.58808,6.3234 2.8104,3.934561 4.07508,9.414841 1.26468,5.33976 1.26468,11.663157 v 2.8104 q 0,12.50628 -5.76132,19.6728 -5.76132,7.026 -18.82968,7.026 h -7.86912 L 403.28751,168.62 h -31.19544 l -32.3196,-38.08093 h -3.23196 -0.98364 V 168.62 H 311.94951 V 71.380152 Z m -8.4312,38.080918 q 4.35612,0 6.88548,-1.96728 2.52936,-1.96728 2.52936,-6.46392 0,-4.496637 -2.52936,-6.463917 -2.52936,-1.96728 -6.88548,-1.96728 h -34.70844 v 16.862397 z"/>

        <!-- A -->
        <path class="cls-14" d="M 527.21247,71.380152 571.61679,168.62 h -25.9962 l -7.30704,-15.87877 H 481.96503 L 474.79851,168.62 h -26.13672 l 44.54484,-97.239848 z m -34.4274,57.753718 h 34.70844 L 510.20955,91.193473 Z"/>

        <!-- T -->
        <path class="cls-14" d="M 590.72353,92.598673 V 71.380152 h 85.85772 V 92.598673 H 645.24529 V 168.62 h -23.1858 V 92.598673 h -31.33596 z"/>

        <!-- E -->
        <path class="cls-14" d="m 731.10209,71.380152 h 82.2042 v 21.078001 h -58.73736 v 16.862397 h 49.60356 v 21.21852 h -49.60356 v 16.8624 h 58.73736 V 168.62 h -82.2042 V 71.380152 Z"/>
      </g>

      <!-- Original GN logo path -->
      <path id="GN" class="cls-13" d="M87.81,172.64h-27.04v11.53c0,6.34,5.19,11.53,11.53,11.53h15.51v66.46c-10.32-5.71-19.76-12.84-28.03-21.12-22.7-22.7-36.75-54.07-36.75-88.71s14.04-66.01,36.75-88.71c8.28-8.28,17.71-15.4,28.03-21.12v87.54h23.03V24.45h-.06v-15.77c-25.85,6.77-48.96,20.32-67.29,38.66C16.62,74.21,0,111.33,0,152.33s16.62,78.12,43.49,104.99c18.33,18.33,41.44,31.89,67.29,38.66v-15.93h.06v-107.41h-23.03ZM148.48,3.85c41,0,78.12,16.62,104.99,43.49,26.87,26.87,43.49,63.99,43.49,104.99,0,29.22-8.45,56.48-23.03,79.45v-79.27h0v-.18c0-34.65-14.04-66.01-36.74-88.71-8.45-8.45-18.11-15.71-28.69-21.48v220.39l.09-.05v25.67c-7.39,3.28-15.09,5.97-23.06,8.01v-15.94h-.05V32.42c-11.7-3.6-24.12-5.54-36.99-5.54h-.81s0-23.02,0-23.02h.81Z"/>
    </g>
  </g>
</svg>