<svg xmlns="http://www.w3.org/2000/svg" viewBox="0 0 1000 600">
    <!-- Fighter 1 - Left side -->
    <path d="
    M300 180
    C305 170, 315 165, 325 170
    C335 175, 340 185, 338 195

    L336 205
    L340 230
    L335 255

    M338 195
    L360 190
    L390 170
    L425 140
    L450 115

    M338 195
    L320 205
    L310 225
    L305 245

    M335 255
    L350 280
    L365 320
    L370 370
    L368 430
    L365 500

    M335 255
    L315 280
    L285 330
    L275 370
    L265 430
    L260 500

    M305 245
    L275 240
    L240 230
    L210 245
    L190 270

    M365 320
    L400 300
    L430 290
    L460 285
    "
          fill="black" stroke="none"/>

    <!-- Fighter 2 - Right side -->
    <path d="
    M700 180
    C695 170, 685 165, 675 170
    C665 175, 660 185, 662 195

    L664 205
    L660 230
    L665 255

    M662 195
    L640 190
    L610 170
    L575 140
    L550 115

    M662 195
    L680 205
    L690 225
    L695 245

    M665 255
    L650 280
    L635 320
    L630 370
    L632 430
    L635 500

    M665 255
    L685 280
    L715 330
    L725 370
    L735 430
    L740 500

    M695 245
    L725 240
    L760 230
    L790 245
    L810 270

    M635 320
    L600 300
    L570 290
    L540 285
    "
          fill="black" stroke="none"/>
</svg>